name rise43.5482peak65.4966fall89.1036.mot
datacolumns 19
datarows 26
range 12.71828000000000 12.75994600000000
endheader
time	ground_force1_vx	ground_force1_vy	ground_force1_vz	ground_force1_px	ground_force1_py	ground_force1_pz	ground_force2_vx	ground_force2_vy	ground_force2_vz	ground_force2_px	ground_force2_py	ground_force2_pz	ground_torque1_x	ground_torque1_y	ground_torque1_z	ground_torque2_x	ground_torque2_y	ground_torque2_z	
12.71828000000000	-53.87803600000000	835.59626700000001	56.70996400000000	0.06203100000000	0.00000000000000	0.11009100000000	-6.95544000000000	38.05063900000000	8.71445400000000	0.32411100000000	0.00000000000000	-0.07458800000000	0.00000000000000	16.67806700000000	0.00000000000000	0.00000000000000	4.78417500000000	0.00000000000000	
12.71994300000000	-54.47632600000000	834.46004300000004	56.63193500000000	0.06124600000000	0.00000000000000	0.11000400000000	-7.77799900000000	43.94108200000000	9.88325000000000	0.32631800000000	0.00000000000000	-0.07487600000000	0.00000000000000	16.63601700000000	0.00000000000000	0.00000000000000	5.46517400000000	0.00000000000000	
12.72161300000000	-55.08986300000000	833.18864599999995	56.53308400000000	0.06046200000000	0.00000000000000	0.10991300000000	-8.50912400000000	49.73306100000000	10.97608200000000	0.32835200000000	0.00000000000000	-0.07516000000000	0.00000000000000	16.59688700000000	0.00000000000000	0.00000000000000	6.11256300000000	0.00000000000000	
12.72328000000000	-55.71873900000000	831.78006500000004	56.41301500000000	0.05967900000000	0.00000000000000	0.10981900000000	-9.13004000000000	55.33828700000000	11.97025100000000	0.33023300000000	0.00000000000000	-0.07544200000000	0.00000000000000	16.56081000000000	0.00000000000000	0.00000000000000	6.71317400000000	0.00000000000000	
12.72494800000000	-56.36297700000000	830.23235899999997	56.27136400000000	0.05889600000000	0.00000000000000	0.10972100000000	-9.62848100000000	60.69433100000000	12.85017300000000	0.33197500000000	0.00000000000000	-0.07572100000000	0.00000000000000	16.52790500000000	0.00000000000000	0.00000000000000	7.25761600000000	0.00000000000000	
12.72661600000000	-57.02253700000000	828.54366300000004	56.10779500000000	0.05811300000000	0.00000000000000	0.10961900000000	-9.99873400000000	65.76597599999999	13.60755000000000	0.33359400000000	0.00000000000000	-0.07599900000000	0.00000000000000	16.49827500000000	0.00000000000000	0.00000000000000	7.74045500000000	0.00000000000000	
12.72828100000000	-57.69730600000000	826.71218099999999	55.92200500000000	0.05733100000000	0.00000000000000	0.10951300000000	-10.24114100000000	70.54411300000000	14.24092900000000	0.33510000000000	0.00000000000000	-0.07627600000000	0.00000000000000	16.47200900000000	0.00000000000000	0.00000000000000	8.16003500000000	0.00000000000000	
12.72995000000000	-58.38709900000000	824.73619099999996	55.71372500000000	0.05654900000000	0.00000000000000	0.10940300000000	-10.36118800000000	75.04267500000000	14.75476500000000	0.33650400000000	0.00000000000000	-0.07655300000000	0.00000000000000	16.44918000000000	0.00000000000000	0.00000000000000	8.51801500000000	0.00000000000000	
12.73161000000000	-59.09165600000000	822.61404200000004	55.48272000000000	0.05576600000000	0.00000000000000	0.10928900000000	-10.36833300000000	79.29421499999999	15.15816600000000	0.33781400000000	0.00000000000000	-0.07683000000000	0.00000000000000	16.42984500000000	0.00000000000000	0.00000000000000	8.81871800000000	0.00000000000000	
12.73327900000000	-59.81064400000000	820.34415300000001	55.22879300000000	0.05498200000000	0.00000000000000	0.10917100000000	-10.27471100000000	83.34471300000000	15.46346500000000	0.33903700000000	0.00000000000000	-0.07710800000000	0.00000000000000	16.41404300000000	0.00000000000000	0.00000000000000	9.06836300000000	0.00000000000000	
12.73495100000000	-60.54364600000000	817.92501200000004	54.95178000000000	0.05419800000000	0.00000000000000	0.10904900000000	-10.09384400000000	87.24818900000000	15.68478700000000	0.34018000000000	0.00000000000000	-0.07738600000000	0.00000000000000	16.40179600000000	0.00000000000000	0.00000000000000	9.27428300000000	0.00000000000000	
12.73661800000000	-61.29017100000000	815.35517700000003	54.65156000000000	0.05341300000000	0.00000000000000	0.10892300000000	-9.83946500000000	91.06158600000001	15.83670500000000	0.34124900000000	0.00000000000000	-0.07766600000000	0.00000000000000	16.39310900000000	0.00000000000000	0.00000000000000	9.44418200000000	0.00000000000000	
12.73828000000000	-62.04964200000000	812.63327800000002	54.32804800000000	0.05262700000000	0.00000000000000	0.10879400000000	-9.52452200000000	94.84028800000000	15.93310000000000	0.34224600000000	0.00000000000000	-0.07794800000000	0.00000000000000	16.38796700000000	0.00000000000000	0.00000000000000	9.58549000000000	0.00000000000000	
12.73994400000000	-62.82140500000000	809.75801300000001	53.98119900000000	0.05183900000000	0.00000000000000	0.10866000000000	-9.16042000000000	98.63451999999999	15.98626000000000	0.34317800000000	0.00000000000000	-0.07823100000000	0.00000000000000	16.38633800000000	0.00000000000000	0.00000000000000	9.70484700000000	0.00000000000000	
12.74161700000000	-63.60471800000000	806.72814800000003	53.61101100000000	0.05105000000000	0.00000000000000	0.10852300000000	-8.75651000000000	102.48674300000000	16.00626400000000	0.34404700000000	0.00000000000000	-0.07851600000000	0.00000000000000	16.38817100000000	0.00000000000000	0.00000000000000	9.80774400000000	0.00000000000000	
12.74328100000000	-64.39875800000000	803.54252099999997	53.21752000000000	0.05025900000000	0.00000000000000	0.10838200000000	-8.31982100000000	106.43007799999999	16.00063100000000	0.34485600000000	0.00000000000000	-0.07880300000000	0.00000000000000	16.39339500000000	0.00000000000000	0.00000000000000	9.89830400000000	0.00000000000000	
12.74494600000000	-65.20261700000000	800.20004200000005	52.80080700000000	0.04946600000000	0.00000000000000	0.10823700000000	-7.85501800000000	110.48769000000000	15.97422900000000	0.34560700000000	0.00000000000000	-0.07909200000000	0.00000000000000	16.40192100000000	0.00000000000000	0.00000000000000	9.97921100000000	0.00000000000000	
12.74661700000000	-66.01530300000000	796.69969100000003	52.36099400000000	0.04867100000000	0.00000000000000	0.10808900000000	-7.36454000000000	114.67300299999999	15.92939200000000	0.34630300000000	0.00000000000000	-0.07938400000000	0.00000000000000	16.41364000000000	0.00000000000000	0.00000000000000	10.05176200000000	0.00000000000000	
12.74828300000000	-66.83573900000000	793.04052000000001	51.89824500000000	0.04787400000000	0.00000000000000	0.10793700000000	-6.84888700000000	118.99058200000000	15.86620600000000	0.34694600000000	0.00000000000000	-0.07967800000000	0.00000000000000	16.42842600000000	0.00000000000000	0.00000000000000	10.11600800000000	0.00000000000000	
12.74994500000000	-67.66276400000000	789.22165700000005	51.41276800000000	0.04707300000000	0.00000000000000	0.10778200000000	-6.30699200000000	123.43749200000001	15.78291000000000	0.34753600000000	0.00000000000000	-0.07997400000000	0.00000000000000	16.44613100000000	0.00000000000000	0.00000000000000	10.17096700000000	0.00000000000000	
12.75161100000000	-68.49513399999999	785.24230499999999	50.90481300000000	0.04627000000000	0.00000000000000	0.10762300000000	-5.73664400000000	128.00493900000001	15.67635700000000	0.34807600000000	0.00000000000000	-0.08027300000000	0.00000000000000	16.46659100000000	0.00000000000000	0.00000000000000	10.21487500000000	0.00000000000000	
12.75328000000000	-69.33152200000001	781.10174500000005	50.37467200000000	0.04546400000000	0.00000000000000	0.10746000000000	-5.13492500000000	132.68002799999999	15.54250200000000	0.34856600000000	0.00000000000000	-0.08057400000000	0.00000000000000	16.48962200000000	0.00000000000000	0.00000000000000	10.24545000000000	0.00000000000000	
12.75494400000000	-70.17051900000000	776.79933600000004	49.82268100000000	0.04465400000000	0.00000000000000	0.10729500000000	-4.49861100000000	137.44748200000001	15.37685700000000	0.34900600000000	0.00000000000000	-0.08087700000000	0.00000000000000	16.51502200000000	0.00000000000000	0.00000000000000	10.26014900000000	0.00000000000000	
12.75661700000000	-71.01063700000000	772.33451900000000	49.24921600000000	0.04384100000000	0.00000000000000	0.10712600000000	-3.82453500000000	142.29119800000001	15.17490300000000	0.34939900000000	0.00000000000000	-0.08118300000000	0.00000000000000	16.54257100000000	0.00000000000000	0.00000000000000	10.25639900000000	0.00000000000000	
12.75828300000000	-71.85030900000000	767.70682099999999	48.65469700000000	0.04302400000000	0.00000000000000	0.10695500000000	-3.10986900000000	147.19556399999999	14.93243100000000	0.34974400000000	0.00000000000000	-0.08149000000000	0.00000000000000	16.57203400000000	0.00000000000000	0.00000000000000	10.23178300000000	0.00000000000000	
12.75994600000000	-72.68789400000000	762.91585199999997	48.03958100000000	0.04220300000000	0.00000000000000	0.10678000000000	-2.35234100000000	152.14648399999999	14.64579800000000	0.35004100000000	0.00000000000000	-0.08180000000000	0.00000000000000	16.60315500000000	0.00000000000000	0.00000000000000	10.18419500000000	0.00000000000000	
